<svg width="1024" height="1024" viewBox="0 0 1024 1024" fill="none" xmlns="http://www.w3.org/2000/svg">
<path d="M 927.35203,725.98151 C 898.92494,671.37664 853.36785,640.79923 804.53396,626.23647 L 528.65337,550.15683 c -31.34175,-8.73692 -60.13447,20.01923 -51.75229,51.69012 l 75.07758,271.93087 c 9.10996,33.12644 25.50861,64.43163 51.74864,90.64241 87.83006,87.72767 235.79459,78.62877 311.23423,-27.66633 43.3665,-61.15848 47.3748,-144.15744 12.3905,-210.77239 z" fill="#00A6ED" />
<path d="m 657.81285,30.11851 c 54.42568,-28.7868701 119.95445,-40.51498 191.4078,-19.19125 87.37668,26.29891 155.49825,98.08835 171.04475,184.80444 26.657,149.97596 -92.92437,279.69498 -243.97925,279.69498 -44.7964,0 -86.26114,-12.43796 -122.5437,-32.34016 L 354.96812,280.31567 c -34.43205,-18.83614 -34.43205,-66.45879 0,-85.29456 z" fill="#26C9FC" />
<path d="M 357.24286,785.75394 C 373.711,733.22998 364.76196,684.63746 342.56673,644.62095 L 215.49292,421.30821 c -14.31847,-25.36598 -51.18837,-25.36598 -65.50646,0 L 24.701039,641.40632 C 9.3088387,668.20224 0.00175775,698.92959 0.00175775,731.80369 c 0,111.47718 99.87049125,199.37306 215.13312225,179.71955 66.5802,-11.0775 122.06316,-61.45471 142.10798,-125.7693 z" fill="#26C9FC" />
<path fill-rule="evenodd" clip-rule="evenodd" d="m 694.85976,694.85553 c 0,-20.19843 16.37305,-36.57148 36.57148,-36.57148 100.98847,0 182.85738,81.86891 182.85738,182.85739 0,20.19842 -16.37305,36.57147 -36.57148,36.57147 -20.19843,0 -36.57148,-16.37305 -36.57148,-36.57147 0,-60.59528 -49.11915,-109.71443 -109.71442,-109.71443 -20.19843,0 -36.57148,-16.37305 -36.57148,-36.57148 z" fill="#83CBFF" />
<path d="m 768.00271,36.56898 c -20.19842,0 -36.57147,16.37379 -36.57147,36.57148 0,20.197686 16.37305,36.57147 36.57147,36.57147 80.79005,0 146.28591,65.49439 146.28591,146.2859 0,20.1977 16.37311,36.57148 36.57151,36.57148 20.1985,0 36.5715,-16.37378 36.5715,-36.57148 0,-121.18727 -98.24202,-219.42885 -219.42892,-219.42885 z" fill="#AEDDFF" />
<path d="m 329.145,731.42701 c 0,-20.19843 -16.37305,-36.57148 -36.57148,-36.57148 -20.19769,0 -36.57147,16.37305 -36.57147,36.57148 0,40.39685 -32.7472,73.14295 -73.14296,73.14295 -20.19769,0 -36.57147,16.37305 -36.57147,36.57148 0,20.19842 16.37378,36.57147 36.57147,36.57147 80.79151,0 146.28591,-65.49585 146.28591,-146.2859 z" fill="#AEDDFF" />
</svg>
